<mxfile host="65bd71144e">
    <diagram id="cost_structure" name="Cost Structure">
        <mxGraphModel dx="1386" dy="784" grid="1" gridSize="10" guides="1" tooltips="1" connect="1" arrows="1" fold="1" page="1" pageScale="1" pageWidth="1100" pageHeight="850" background="#ffffff">
            <root>
                <mxCell id="0"/>
                <mxCell id="1" parent="0"/>
                
                <!-- Total Program Cost -->
                <mxCell id="total_cost" value="Total Program Cost&#xa;$26.57B (5-Year)" style="ellipse;whiteSpace=wrap;html=1;fillColor=#dae8fc;strokeColor=#6c8ebf;fontSize=14;fontStyle=1" vertex="1" parent="1">
                    <mxGeometry x="480" y="20" width="140" height="80" as="geometry"/>
                </mxCell>

                <!-- Main Cost Categories -->
                <mxCell id="facilities" value="Facilities &amp; Equipment&#xa;$846M" style="rounded=1;whiteSpace=wrap;html=1;fillColor=#d5e8d4;strokeColor=#82b366" vertex="1" parent="1">
                    <mxGeometry x="40" y="160" width="160" height="60" as="geometry"/>
                </mxCell>
                
                <mxCell id="personnel" value="Personnel&#xa;$643.25M" style="rounded=1;whiteSpace=wrap;html=1;fillColor=#ffe6cc;strokeColor=#d79b00" vertex="1" parent="1">
                    <mxGeometry x="240" y="160" width="160" height="60" as="geometry"/>
                </mxCell>
                
                <mxCell id="components" value="Components&#xa;$24B" style="rounded=1;whiteSpace=wrap;html=1;fillColor=#fff2cc;strokeColor=#d6b656" vertex="1" parent="1">
                    <mxGeometry x="440" y="160" width="160" height="60" as="geometry"/>
                </mxCell>
                
                <mxCell id="operations" value="Operations&#xa;$84M" style="rounded=1;whiteSpace=wrap;html=1;fillColor=#f8cecc;strokeColor=#b85450" vertex="1" parent="1">
                    <mxGeometry x="640" y="160" width="160" height="60" as="geometry"/>
                </mxCell>
                
                <mxCell id="rd_marketing" value="R&amp;D and Marketing&#xa;$1B" style="rounded=1;whiteSpace=wrap;html=1;fillColor=#e1d5e7;strokeColor=#9673a6" vertex="1" parent="1">
                    <mxGeometry x="840" y="160" width="160" height="60" as="geometry"/>
                </mxCell>

                <!-- Subcategories -->
                <!-- Facilities -->
                <mxCell id="main_factory" value="Main Factory&#xa;$200M" style="shape=process;whiteSpace=wrap;html=1;backgroundOutline=1;fillColor=#d5e8d4;strokeColor=#82b366" vertex="1" parent="1">
                    <mxGeometry x="40" y="280" width="120" height="60" as="geometry"/>
                </mxCell>
                
                <mxCell id="battery_prod" value="Battery Production&#xa;$150M" style="shape=process;whiteSpace=wrap;html=1;backgroundOutline=1;fillColor=#d5e8d4;strokeColor=#82b366" vertex="1" parent="1">
                    <mxGeometry x="40" y="360" width="120" height="60" as="geometry"/>
                </mxCell>

                <!-- Personnel -->
                <mxCell id="engineering" value="Engineering&#xa;$29.75M/year" style="shape=process;whiteSpace=wrap;html=1;backgroundOutline=1;fillColor=#ffe6cc;strokeColor=#d79b00" vertex="1" parent="1">
                    <mxGeometry x="240" y="280" width="120" height="60" as="geometry"/>
                </mxCell>
                
                <mxCell id="production" value="Production&#xa;$80.5M/year" style="shape=process;whiteSpace=wrap;html=1;backgroundOutline=1;fillColor=#ffe6cc;strokeColor=#d79b00" vertex="1" parent="1">
                    <mxGeometry x="240" y="360" width="120" height="60" as="geometry"/>
                </mxCell>

                <!-- Components -->
                <mxCell id="powertrain" value="Powertrain&#xa;$14.5K/unit" style="shape=process;whiteSpace=wrap;html=1;backgroundOutline=1;fillColor=#fff2cc;strokeColor=#d6b656" vertex="1" parent="1">
                    <mxGeometry x="440" y="280" width="120" height="60" as="geometry"/>
                </mxCell>
                
                <mxCell id="body" value="Body&#xa;$6K/unit" style="shape=process;whiteSpace=wrap;html=1;backgroundOutline=1;fillColor=#fff2cc;strokeColor=#d6b656" vertex="1" parent="1">
                    <mxGeometry x="440" y="360" width="120" height="60" as="geometry"/>
                </mxCell>

                <!-- Operations -->
                <mxCell id="utilities" value="Utilities&#xa;$6M/year" style="shape=process;whiteSpace=wrap;html=1;backgroundOutline=1;fillColor=#f8cecc;strokeColor=#b85450" vertex="1" parent="1">
                    <mxGeometry x="640" y="280" width="120" height="60" as="geometry"/>
                </mxCell>
                
                <mxCell id="maintenance" value="Maintenance&#xa;$4.8M/year" style="shape=process;whiteSpace=wrap;html=1;backgroundOutline=1;fillColor=#f8cecc;strokeColor=#b85450" vertex="1" parent="1">
                    <mxGeometry x="640" y="360" width="120" height="60" as="geometry"/>
                </mxCell>

                <!-- R&D and Marketing -->
                <mxCell id="vehicle_design" value="Vehicle Design&#xa;$50M/year" style="shape=process;whiteSpace=wrap;html=1;backgroundOutline=1;fillColor=#e1d5e7;strokeColor=#9673a6" vertex="1" parent="1">
                    <mxGeometry x="840" y="280" width="120" height="60" as="geometry"/>
                </mxCell>
                
                <mxCell id="marketing" value="Marketing&#xa;$50M/year" style="shape=process;whiteSpace=wrap;html=1;backgroundOutline=1;fillColor=#e1d5e7;strokeColor=#9673a6" vertex="1" parent="1">
                    <mxGeometry x="840" y="360" width="120" height="60" as="geometry"/>
                </mxCell>

                <!-- Financial Metrics -->
                <mxCell id="metrics" value="Key Financial Metrics" style="swimlane;fontStyle=0;childLayout=stackLayout;horizontal=1;startSize=30;horizontalStack=0;resizeParent=1;resizeParentMax=0;resizeLast=0;collapsible=1;marginBottom=0;fillColor=#f5f5f5;strokeColor=#666666;fontColor=#333333" vertex="1" parent="1">
                    <mxGeometry x="440" y="480" width="220" height="150" as="geometry"/>
                </mxCell>
                <mxCell id="break_even" value="Break-Even Point: 175,000 units" style="text;strokeColor=none;fillColor=none;align=left;verticalAlign=middle;spacingLeft=4;spacingRight=4;overflow=hidden;points=[[0,0.5],[1,0.5]];portConstraint=eastwest;rotatable=0;" vertex="1" parent="metrics">
                    <mxGeometry y="30" width="220" height="30" as="geometry"/>
                </mxCell>
                <mxCell id="gross_margin" value="Gross Margin: 25%" style="text;strokeColor=none;fillColor=none;align=left;verticalAlign=middle;spacingLeft=4;spacingRight=4;overflow=hidden;points=[[0,0.5],[1,0.5]];portConstraint=eastwest;rotatable=0;" vertex="1" parent="metrics">
                    <mxGeometry y="60" width="220" height="30" as="geometry"/>
                </mxCell>
                <mxCell id="operating_margin" value="Operating Margin: 15%" style="text;strokeColor=none;fillColor=none;align=left;verticalAlign=middle;spacingLeft=4;spacingRight=4;overflow=hidden;points=[[0,0.5],[1,0.5]];portConstraint=eastwest;rotatable=0;" vertex="1" parent="metrics">
                    <mxGeometry y="90" width="220" height="30" as="geometry"/>
                </mxCell>
                <mxCell id="payback" value="Payback Period: 4.2 years" style="text;strokeColor=none;fillColor=none;align=left;verticalAlign=middle;spacingLeft=4;spacingRight=4;overflow=hidden;points=[[0,0.5],[1,0.5]];portConstraint=eastwest;rotatable=0;" vertex="1" parent="metrics">
                    <mxGeometry y="120" width="220" height="30" as="geometry"/>
                </mxCell>

                <!-- Connections -->
                <!-- Main categories to total -->
                <mxCell id="2" value="" style="endArrow=classic;html=1;exitX=0.5;exitY=0;exitDx=0;exitDy=0;entryX=0;entryY=1;entryDx=0;entryDy=0;" edge="1" parent="1" source="facilities" target="total_cost">
                    <mxGeometry width="50" height="50" relative="1" as="geometry"/>
                </mxCell>
                <mxCell id="3" value="" style="endArrow=classic;html=1;exitX=0.5;exitY=0;exitDx=0;exitDy=0;entryX=0.25;entryY=1;entryDx=0;entryDy=0;" edge="1" parent="1" source="personnel" target="total_cost">
                    <mxGeometry width="50" height="50" relative="1" as="geometry"/>
                </mxCell>
                <mxCell id="4" value="" style="endArrow=classic;html=1;exitX=0.5;exitY=0;exitDx=0;exitDy=0;entryX=0.5;entryY=1;entryDx=0;entryDy=0;" edge="1" parent="1" source="components" target="total_cost">
                    <mxGeometry width="50" height="50" relative="1" as="geometry"/>
                </mxCell>
                <mxCell id="5" value="" style="endArrow=classic;html=1;exitX=0.5;exitY=0;exitDx=0;exitDy=0;entryX=0.75;entryY=1;entryDx=0;entryDy=0;" edge="1" parent="1" source="operations" target="total_cost">
                    <mxGeometry width="50" height="50" relative="1" as="geometry"/>
                </mxCell>
                <mxCell id="6" value="" style="endArrow=classic;html=1;exitX=0.5;exitY=0;exitDx=0;exitDy=0;entryX=1;entryY=1;entryDx=0;entryDy=0;" edge="1" parent="1" source="rd_marketing" target="total_cost">
                    <mxGeometry width="50" height="50" relative="1" as="geometry"/>
                </mxCell>

                <!-- Subcategories to main categories -->
                <mxCell id="7" value="" style="endArrow=classic;html=1;exitX=0.5;exitY=0;exitDx=0;exitDy=0;entryX=0.5;entryY=1;entryDx=0;entryDy=0;" edge="1" parent="1" source="main_factory" target="facilities">
                    <mxGeometry width="50" height="50" relative="1" as="geometry"/>
                </mxCell>
                <mxCell id="8" value="" style="endArrow=classic;html=1;exitX=0.5;exitY=0;exitDx=0;exitDy=0;entryX=0.5;entryY=1;entryDx=0;entryDy=0;" edge="1" parent="1" source="battery_prod" target="facilities">
                    <mxGeometry width="50" height="50" relative="1" as="geometry"/>
                </mxCell>
                <mxCell id="9" value="" style="endArrow=classic;html=1;exitX=0.5;exitY=0;exitDx=0;exitDy=0;entryX=0.5;entryY=1;entryDx=0;entryDy=0;" edge="1" parent="1" source="engineering" target="personnel">
                    <mxGeometry width="50" height="50" relative="1" as="geometry"/>
                </mxCell>
                <mxCell id="10" value="" style="endArrow=classic;html=1;exitX=0.5;exitY=0;exitDx=0;exitDy=0;entryX=0.5;entryY=1;entryDx=0;entryDy=0;" edge="1" parent="1" source="production" target="personnel">
                    <mxGeometry width="50" height="50" relative="1" as="geometry"/>
                </mxCell>
                <mxCell id="11" value="" style="endArrow=classic;html=1;exitX=0.5;exitY=0;exitDx=0;exitDy=0;entryX=0.5;entryY=1;entryDx=0;entryDy=0;" edge="1" parent="1" source="powertrain" target="components">
                    <mxGeometry width="50" height="50" relative="1" as="geometry"/>
                </mxCell>
                <mxCell id="12" value="" style="endArrow=classic;html=1;exitX=0.5;exitY=0;exitDx=0;exitDy=0;entryX=0.5;entryY=1;entryDx=0;entryDy=0;" edge="1" parent="1" source="body" target="components">
                    <mxGeometry width="50" height="50" relative="1" as="geometry"/>
                </mxCell>
                <mxCell id="13" value="" style="endArrow=classic;html=1;exitX=0.5;exitY=0;exitDx=0;exitDy=0;entryX=0.5;entryY=1;entryDx=0;entryDy=0;" edge="1" parent="1" source="utilities" target="operations">
                    <mxGeometry width="50" height="50" relative="1" as="geometry"/>
                </mxCell>
                <mxCell id="14" value="" style="endArrow=classic;html=1;exitX=0.5;exitY=0;exitDx=0;exitDy=0;entryX=0.5;entryY=1;entryDx=0;entryDy=0;" edge="1" parent="1" source="maintenance" target="operations">
                    <mxGeometry width="50" height="50" relative="1" as="geometry"/>
                </mxCell>
                <mxCell id="15" value="" style="endArrow=classic;html=1;exitX=0.5;exitY=0;exitDx=0;exitDy=0;entryX=0.5;entryY=1;entryDx=0;entryDy=0;" edge="1" parent="1" source="vehicle_design" target="rd_marketing">
                    <mxGeometry width="50" height="50" relative="1" as="geometry"/>
                </mxCell>
                <mxCell id="16" value="" style="endArrow=classic;html=1;exitX=0.5;exitY=0;exitDx=0;exitDy=0;entryX=0.5;entryY=1;entryDx=0;entryDy=0;" edge="1" parent="1" source="marketing" target="rd_marketing">
                    <mxGeometry width="50" height="50" relative="1" as="geometry"/>
                </mxCell>

            </root>
        </mxGraphModel>
    </diagram>
</mxfile>
